<svg width="36" height="36" viewBox="0 0 36 36" fill="none" xmlns="http://www.w3.org/2000/svg">
<path d="M30.1667 16.3026H31V16.0674L30.8817 15.866L30.1667 16.3026ZM6.83333 16.3026L6.11833 15.866L6 16.0708V16.3043L6.83333 16.3026ZM11.8333 24.7692V23.9231H11V24.7692H11.8333ZM25.1667 24.7692H26V23.9231H25.1667V24.7692ZM29.3333 16.3026V26.4615H31V16.3026H29.3333ZM7.54833 16.7375L11.0917 10.7468L9.66167 9.87354L6.11833 15.866L7.54833 16.7375ZM14.6633 8.69231H22.3367V7H14.6633V8.69231ZM25.9083 10.7451L29.4517 16.7375L30.8817 15.866L27.3383 9.87354L25.9083 10.7451ZM10.1667 27.3077H8.5V29H10.1667V27.3077ZM11 24.7692V26.4615H12.6667V24.7692H11ZM28.5 27.3077H26.8333V29H28.5V27.3077ZM26 26.4615V24.7692H24.3333V26.4615H26ZM25.1667 23.9231H11.8333V25.6154H25.1667V23.9231ZM7.66667 26.4615V16.3026L6 16.3043V26.4615H7.66667ZM26.8333 27.3077C26.6123 27.3077 26.4004 27.2185 26.2441 27.0599C26.0878 26.9012 26 26.686 26 26.4615H24.3333C24.3333 27.1348 24.5967 27.7804 25.0656 28.2565C25.5344 28.7326 26.1703 29 26.8333 29V27.3077ZM10.1667 29C10.8297 29 11.4656 28.7326 11.9344 28.2565C12.4033 27.7804 12.6667 27.1348 12.6667 26.4615H11C11 26.686 10.9122 26.9012 10.7559 27.0599C10.5996 27.2185 10.3877 27.3077 10.1667 27.3077V29ZM8.5 27.3077C8.27899 27.3077 8.06702 27.2185 7.91074 27.0599C7.75446 26.9012 7.66667 26.686 7.66667 26.4615H6C6 27.1348 6.26339 27.7804 6.73223 28.2565C7.20107 28.7326 7.83696 29 8.5 29V27.3077ZM22.3367 8.69231C23.0559 8.69239 23.7628 8.88149 24.3887 9.24121C25.0146 9.60093 25.5381 10.119 25.9083 10.7451L27.3383 9.87354C26.8198 8.99692 26.0867 8.27154 25.2102 7.76798C24.3337 7.26442 23.3437 6.99984 22.3367 7V8.69231ZM11.0917 10.7468C11.4619 10.1207 11.9854 9.60093 12.6113 9.24121C13.2372 8.88149 13.9441 8.69239 14.6633 8.69231V7C13.6565 7.00014 12.6669 7.26485 11.7908 7.7684C10.9146 8.27194 10.18 8.99717 9.66167 9.87354L11.0917 10.7468ZM29.3333 26.4615C29.3333 26.686 29.2455 26.9012 29.0893 27.0599C28.933 27.2185 28.721 27.3077 28.5 27.3077V29C29.163 29 29.7989 28.7326 30.2678 28.2565C30.7366 27.7804 31 27.1348 31 26.4615H29.3333ZM9.33333 22.2308H14.3333V20.5385H9.33333V22.2308ZM27.6667 20.5385H22.6667V22.2308H27.6667V20.5385ZM11 17.1538H26V15.4615H11V17.1538Z" fill="#333333"/>
</svg>
