<svg version="1.1" xmlns="http://www.w3.org/2000/svg" xmlns:xlink="http://www.w3.org/1999/xlink" width="10" height="8" viewBox="0,0,256,204.79167"><g fill="#f2d14e" fill-rule="nonzero" stroke="none" stroke-width="1" stroke-linecap="butt" stroke-linejoin="miter" stroke-miterlimit="10" stroke-dasharray="" stroke-dashoffset="0" font-family="none" font-weight="none" font-size="none" text-anchor="none" style="mix-blend-mode: normal"><g transform="translate(-7.98877,-0.00423) scale(25.6,25.6)"><path d="M9.94052,0.96646c-0.03931,-0.09484 -0.09694,-0.181 -0.16958,-0.25356c-0.07255,-0.07264 -0.15872,-0.13026 -0.25356,-0.16958c-0.09484,-0.03932 -0.1965,-0.05955 -0.29917,-0.05955c-0.10267,0 -0.20433,0.02024 -0.29918,0.05955c-0.09484,0.03932 -0.181,0.09694 -0.25356,0.16958l-4.91601,4.917l-1.79102,-1.792c-0.14659,-0.14659 -0.34542,-0.22894 -0.55273,-0.22894c-0.20732,0 -0.40614,0.08235 -0.55274,0.22894c-0.14659,0.1466 -0.22895,0.34542 -0.22895,0.55274c0,0.20731 0.08236,0.40614 0.22895,0.55273l2.34375,2.34375c0.07256,0.07264 0.15872,0.13027 0.25357,0.16958c0.09484,0.03932 0.1965,0.05955 0.29917,0.05955c0.10267,0 0.20433,-0.02023 0.29917,-0.05955c0.09484,-0.03931 0.18101,-0.09694 0.25356,-0.16958l5.46875,-5.46875c0.07264,-0.07255 0.13027,-0.15872 0.16958,-0.25356c0.03932,-0.09484 0.05958,-0.1965 0.05958,-0.29917c0,-0.10267 -0.02026,-0.20433 -0.05958,-0.29917z"></path></g></g></svg>