<svg width="36" height="37" viewBox="0 0 36 37" fill="none" xmlns="http://www.w3.org/2000/svg">
<path d="M30.9 8.39003C30.7863 7.48206 30.3462 6.64647 29.6616 6.03923C28.9771 5.43199 28.095 5.0946 27.18 5.09003H8.82747C7.91471 5.09413 7.03446 5.42941 6.35027 6.0336C5.66608 6.63778 5.22447 7.46978 5.10747 8.37503L4.65747 12.08C4.65807 12.807 4.81356 13.5254 5.11359 14.1876C5.41362 14.8497 5.8513 15.4403 6.39747 15.92V28.16C6.39747 29.1546 6.79256 30.1084 7.49582 30.8117C8.19908 31.5149 9.15291 31.91 10.1475 31.91H25.8525C26.847 31.91 27.8009 31.5149 28.5041 30.8117C29.2074 30.1084 29.6025 29.1546 29.6025 28.16V15.92C30.15 15.441 30.5891 14.8507 30.8904 14.1885C31.1918 13.5264 31.3484 12.8075 31.35 12.08L30.9 8.39003ZM21.015 30.41H15.015V24.29C15.015 23.6933 15.252 23.121 15.674 22.699C16.0959 22.2771 16.6682 22.04 17.265 22.04H18.765C19.3617 22.04 19.934 22.2771 20.356 22.699C20.7779 23.121 21.015 23.6933 21.015 24.29V30.41ZM28.11 28.16C28.11 28.7568 27.8729 29.3291 27.451 29.751C27.029 30.173 26.4567 30.41 25.86 30.41H22.515V24.29C22.515 23.2955 22.1199 22.3416 21.4166 21.6384C20.7134 20.9351 19.7595 20.54 18.765 20.54H17.265C16.2704 20.54 15.3166 20.9351 14.6133 21.6384C13.9101 22.3416 13.515 23.2955 13.515 24.29V30.41H10.1475C9.55073 30.41 8.97844 30.173 8.55648 29.751C8.13452 29.3291 7.89747 28.7568 7.89747 28.16V16.805C8.48766 17.0465 9.1198 17.1689 9.75747 17.165C10.4938 17.1684 11.2219 17.0104 11.8906 16.702C12.5592 16.3936 13.1521 15.9423 13.6275 15.38C13.6952 15.3126 13.7869 15.2748 13.8825 15.2748C13.978 15.2748 14.0697 15.3126 14.1375 15.38C14.6129 15.9423 15.2057 16.3936 15.8744 16.702C16.543 17.0104 17.2711 17.1684 18.0075 17.165C18.747 17.1682 19.4784 17.0101 20.1506 16.7018C20.8228 16.3936 21.4198 15.9425 21.9 15.38C21.9306 15.347 21.9678 15.3206 22.0091 15.3026C22.0503 15.2845 22.0949 15.2751 22.14 15.275C22.1873 15.2747 22.2342 15.2839 22.278 15.3019C22.3218 15.3199 22.3616 15.3465 22.395 15.38C22.8704 15.9423 23.4632 16.3936 24.1319 16.702C24.8005 17.0104 25.5286 17.1684 26.265 17.165C26.8978 17.1689 27.525 17.0465 28.11 16.805V28.16ZM26.265 15.665C25.7469 15.6674 25.2345 15.5574 24.7632 15.3424C24.2919 15.1275 23.8728 14.8128 23.535 14.42C23.3661 14.2182 23.155 14.0558 22.9166 13.9444C22.6781 13.8329 22.4182 13.7751 22.155 13.775H22.14C21.8779 13.7727 21.6184 13.8278 21.38 13.9367C21.1415 14.0456 20.9299 14.2054 20.76 14.405C20.412 14.7845 19.989 15.0875 19.5178 15.2948C19.0465 15.502 18.5373 15.6091 18.0225 15.6091C17.5076 15.6091 16.9984 15.502 16.5272 15.2948C16.0559 15.0875 15.6329 14.7845 15.285 14.405C15.1104 14.2071 14.8958 14.0486 14.6552 13.94C14.4147 13.8315 14.1539 13.7753 13.89 13.7753C13.6261 13.7753 13.3652 13.8315 13.1247 13.94C12.8842 14.0486 12.6695 14.2071 12.495 14.405C12.0215 14.9575 11.3922 15.3538 10.6894 15.5421C9.98665 15.7305 9.24339 15.7019 8.55717 15.4602C7.87096 15.2184 7.27387 14.7749 6.84427 14.1877C6.41467 13.6006 6.17265 12.8972 6.14997 12.17L6.59997 8.57003C6.6712 8.02599 6.9366 7.52601 7.3473 7.16218C7.75799 6.79834 8.28632 6.59515 8.83497 6.59003H27.18C27.7302 6.58972 28.2614 6.79102 28.6732 7.15586C29.0851 7.52071 29.3489 8.02381 29.415 8.57003L29.85 12.11C29.8413 13.0567 29.4588 13.9615 28.7859 14.6274C28.113 15.2933 27.2042 15.6663 26.2575 15.665H26.265Z" fill="#333333"/>
</svg>
