<svg width="31" height="32" viewBox="0 0 31 32" fill="none" xmlns="http://www.w3.org/2000/svg">
<path d="M23.3535 13.5588L15.5001 17.324L2.90639 12.2672V9.038C2.90298 8.72427 2.96172 8.41296 3.07923 8.12205C3.19673 7.83113 3.37068 7.56636 3.59103 7.34301C3.81138 7.11966 4.07377 6.94214 4.36307 6.82071C4.65237 6.69928 4.96285 6.63633 5.2766 6.6355H25.7237C26.3518 6.6372 26.9537 6.88747 27.3978 7.3316C27.8419 7.77573 28.0922 8.37761 28.0939 9.00571V22.9945C28.0922 23.6226 27.8419 24.2244 27.3978 24.6686C26.9537 25.1127 26.3518 25.363 25.7237 25.3647H5.2766C4.6485 25.363 4.04662 25.1127 3.60249 24.6686C3.15836 24.2244 2.90809 23.6226 2.90639 22.9945V17.324" stroke="#8E99A9" stroke-linecap="round" stroke-linejoin="round"/>
</svg>
