<svg width="31" height="32" viewBox="0 0 31 32" fill="none" xmlns="http://www.w3.org/2000/svg">
<path d="M27.5 16.5C27.5 23.1274 22.1274 28.5 15.5 28.5C8.87258 28.5 3.5 23.1274 3.5 16.5C3.5 9.87258 8.87258 4.5 15.5 4.5C22.1274 4.5 27.5 9.87258 27.5 16.5Z" stroke="#8E99A9" stroke-linecap="round" stroke-linejoin="round"/>
<path d="M14.3216 17.8594C13.4432 18.1205 12.5023 18.1105 11.6258 17.8264C10.6447 17.5086 9.80282 16.8663 9.24216 16.0062C8.67706 15.1444 8.4225 14.1184 8.52057 13.0947C8.61866 12.0709 9.0636 11.1107 9.78201 10.3697L14.3216 17.8594ZM14.3216 17.8594L15.2835 18.7798C15.3766 18.8688 15.5004 18.9185 15.6292 18.9185H16.6012V19.9803C16.6012 20.2564 16.8251 20.4803 17.1012 20.4803H18.1598V21.5C18.1598 21.7761 18.3837 22 18.6598 22H21C21.2761 22 21.5 21.7761 21.5 21.5V19.3124C21.5 19.1839 21.4505 19.0603 21.3618 18.9673L17.3751 14.7868C17.64 13.8798 17.6135 12.9114 17.296 12.017C16.9518 11.0475 16.2863 10.2229 15.4092 9.67667L15.4078 9.67583C14.532 9.13428 13.495 8.90792 12.4711 9.03408C11.4472 9.16024 10.4974 9.63139 9.78211 10.3696L14.3216 17.8594Z" stroke="#8E99A9" stroke-linecap="round" stroke-linejoin="round"/>
<path d="M12.5 12C12.5 12.5523 12.0523 13 11.5 13C10.9477 13 10.5 12.5523 10.5 12C10.5 11.4477 10.9477 11 11.5 11C12.0523 11 12.5 11.4477 12.5 12Z" stroke="#8E99A9" stroke-linecap="round" stroke-linejoin="round"/>
</svg>
