<svg width="25" height="26" viewBox="0 0 25 26" fill="none" xmlns="http://www.w3.org/2000/svg">
<g clip-path="url(#clip0_921_1265)">
<path d="M9.375 23.4085C9.9503 23.4085 10.4167 22.9422 10.4167 22.3669C10.4167 21.7916 9.9503 21.3252 9.375 21.3252C8.7997 21.3252 8.33333 21.7916 8.33333 22.3669C8.33333 22.9422 8.7997 23.4085 9.375 23.4085Z" stroke="#333333" stroke-width="2" stroke-linecap="round" stroke-linejoin="round"/>
<path d="M20.8333 23.4085C21.4086 23.4085 21.875 22.9422 21.875 22.3669C21.875 21.7916 21.4086 21.3252 20.8333 21.3252C20.258 21.3252 19.7917 21.7916 19.7917 22.3669C19.7917 22.9422 20.258 23.4085 20.8333 23.4085Z" stroke="#333333" stroke-width="2" stroke-linecap="round" stroke-linejoin="round"/>
<path d="M1.04167 1.53357H5.20833L8 15.4815C8.09526 15.9611 8.35616 16.3919 8.73703 16.6985C9.1179 17.0051 9.59448 17.1679 10.0833 17.1586H20.2083C20.6972 17.1679 21.1738 17.0051 21.5546 16.6985C21.9355 16.3919 22.1964 15.9611 22.2917 15.4815L23.9583 6.7419H6.25" stroke="#333333" stroke-width="2" stroke-linecap="round" stroke-linejoin="round"/>
</g>
<defs>
<clipPath id="clip0_921_1265">
<rect width="25" height="25" fill="white" transform="translate(0 0.491882)"/>
</clipPath>
</defs>
</svg>
