<svg width="31" height="32" viewBox="0 0 31 32" fill="none" xmlns="http://www.w3.org/2000/svg">
<path d="M15.5 3.5C13.0277 3.5 10.611 4.23311 8.55538 5.60663C6.49976 6.98015 4.89761 8.93238 3.95151 11.2165C3.00542 13.5005 2.75787 16.0139 3.24019 18.4386C3.7225 20.8634 4.91301 23.0907 6.66117 24.8388C8.40933 26.587 10.6366 27.7775 13.0614 28.2598C15.4861 28.7421 17.9995 28.4946 20.2835 27.5485C22.5676 26.6024 24.5199 25.0002 25.8934 22.9446C27.2669 20.889 28 18.4723 28 16C27.9964 12.6859 26.6782 9.5086 24.3348 7.16518C21.9914 4.82177 18.8141 3.50364 15.5 3.5ZM8.10876 24.8025C8.85064 23.4962 9.9255 22.4098 11.2239 21.654C12.5222 20.8982 13.9977 20.5 15.5 20.5C17.0023 20.5 18.4778 20.8982 19.7761 21.654C21.0745 22.4098 22.1494 23.4962 22.8913 24.8025C20.8224 26.5446 18.2047 27.5 15.5 27.5C12.7954 27.5 10.1776 26.5446 8.10876 24.8025ZM23.6463 24.1087C22.4041 22.0321 20.4128 20.5109 18.0825 19.8587C19.166 19.2826 20.0256 18.3606 20.5246 17.2395C21.0237 16.1184 21.1335 14.8626 20.8366 13.672C20.5397 12.4813 19.8531 11.4241 18.8861 10.6686C17.919 9.91314 16.7271 9.50275 15.5 9.50275C14.2729 9.50275 13.081 9.91314 12.114 10.6686C11.1469 11.4241 10.4604 12.4813 10.1634 13.672C9.86651 14.8626 9.97631 16.1184 10.4754 17.2395C10.9744 18.3606 11.8341 19.2826 12.9175 19.8587C10.5872 20.5109 8.59589 22.0321 7.35376 24.1087C5.74957 22.4988 4.65838 20.4496 4.21798 18.22C3.77758 15.9903 4.00771 13.6802 4.87933 11.5812C5.75094 9.48226 7.22495 7.68863 9.11522 6.42682C11.0055 5.165 13.2273 4.49157 15.5 4.49157C17.7727 4.49157 19.9945 5.165 21.8848 6.42682C23.7751 7.68863 25.2491 9.48226 26.1207 11.5812C26.9923 13.6802 27.2224 15.9903 26.782 18.22C26.3416 20.4496 25.2504 22.4988 23.6463 24.1087ZM15.5 19.5C14.61 19.5 13.74 19.2361 12.9999 18.7416C12.2599 18.2471 11.6831 17.5443 11.3425 16.7221C11.002 15.8998 10.9128 14.995 11.0865 14.1221C11.2601 13.2492 11.6887 12.4474 12.318 11.818C12.9474 11.1887 13.7492 10.7601 14.6221 10.5865C15.495 10.4128 16.3998 10.5019 17.2221 10.8425C18.0443 11.1831 18.7472 11.7599 19.2416 12.4999C19.7361 13.24 20 14.11 20 15C20 16.1935 19.5259 17.3381 18.682 18.182C17.8381 19.0259 16.6935 19.5 15.5 19.5Z" fill="#8E99A9"/>
</svg>
