<svg width="13" height="9" viewBox="0 0 13 9" fill="none" xmlns="http://www.w3.org/2000/svg">
<path d="M11.5958 7.6875L1.40427 7.6875L6.50002 1.86394L11.5958 7.6875ZM12.3958 6.98731L7.30008 1.16481C7.20035 1.05069 7.07736 0.959223 6.93937 0.896553C6.80138 0.833883 6.65158 0.801459 6.50002 0.801459C6.34846 0.801459 6.19866 0.833883 6.06066 0.896553C5.92267 0.959223 5.79968 1.05069 5.69996 1.16481L0.604207 6.98731C0.00283146 7.67475 0.491582 8.75 1.40427 8.75L11.5958 8.75C11.8 8.75017 12 8.69147 12.1718 8.58091C12.3435 8.47036 12.4798 8.31264 12.5642 8.12664C12.6486 7.94064 12.6776 7.73425 12.6478 7.53219C12.6179 7.33012 12.5304 7.14094 12.3958 6.98731Z" fill="#015DB8"/>
</svg>
