<svg width="31" height="30" viewBox="0 0 31 30" fill="none" xmlns="http://www.w3.org/2000/svg">
<path fill-rule="evenodd" clip-rule="evenodd" d="M2.5 0C1.39543 0 0.5 0.89543 0.5 2V28C0.5 29.1046 1.39543 30 2.5 30H28.5C29.6046 30 30.5 29.1046 30.5 28V2C30.5 0.895431 29.6046 0 28.5 0H2.5ZM5.30061 13.385L25.2313 5.74829C26.1407 5.33947 27.0198 5.9661 26.6724 7.35003L23.2787 23.2423C23.0415 24.3727 22.3569 24.6408 21.4037 24.1191L16.2338 20.3248L13.7484 22.7263C13.7391 22.7352 13.7299 22.744 13.7207 22.7528C13.4435 23.0192 13.2136 23.2401 12.7131 23.2401L13.066 17.9992L13.0638 17.9981H13.066L22.6582 9.39632C23.0786 9.02549 22.5671 8.84342 22.0073 9.18186L10.1681 16.6041L5.05106 15.018C3.94829 14.6818 3.94042 13.9279 5.30061 13.385Z" fill="black"/>
</svg>
