<svg width="31" height="30" viewBox="0 0 31 30" fill="none" xmlns="http://www.w3.org/2000/svg">
<mask id="path-1-inside-1_416_4445" fill="white">
<path fill-rule="evenodd" clip-rule="evenodd" d="M2.5 0C1.39543 0 0.5 0.89543 0.5 2V28C0.5 29.1046 1.39543 30 2.5 30H28.5C29.6046 30 30.5 29.1046 30.5 28V2C30.5 0.895431 29.6046 0 28.5 0H2.5ZM21.3511 8.17881C22.1283 8.94258 23.163 9.47209 24.3067 9.69136H24.3526C24.7301 9.75925 25.1146 9.79277 25.5 9.79139V13.1924C23.538 13.198 21.6235 12.6662 20.027 11.6719V18.674C20.0234 19.9314 19.5911 21.1595 18.7851 22.2022C17.979 23.245 16.8356 24.0553 15.5001 24.5302C14.1646 25.0052 12.6973 25.1233 11.2847 24.8695C9.87202 24.6158 8.57776 24.0017 7.56636 23.1052C6.5795 22.2241 5.90879 21.1112 5.63636 19.9029C5.36393 18.6945 5.50159 17.4431 6.0325 16.3019C6.56342 15.1607 7.46453 14.1793 8.62549 13.4777C9.78646 12.7762 11.1569 12.385 12.569 12.3521C12.9523 12.3443 13.3358 12.3611 13.7163 12.4021V15.9032C13.3893 15.8153 13.0488 15.7714 12.7066 15.7731C12.0879 15.7712 11.4809 15.9203 10.9543 16.2035C10.4276 16.4867 10.0024 16.8927 9.72663 17.3756C9.45087 17.8585 9.33559 18.399 9.39383 18.936C9.45207 19.4731 9.6815 19.9852 10.0562 20.4145C10.4744 20.8994 11.057 21.2574 11.7216 21.4376C12.3861 21.6179 13.0989 21.6113 13.7589 21.4187C14.4189 21.2262 14.9926 20.8575 15.3989 20.3649C15.8052 19.8723 16.0234 19.2807 16.0226 18.674V5H19.9811V5.44013C20.0944 6.45629 20.574 7.41505 21.3511 8.17881Z"/>
</mask>
<path fill-rule="evenodd" clip-rule="evenodd" d="M2.5 0C1.39543 0 0.5 0.89543 0.5 2V28C0.5 29.1046 1.39543 30 2.5 30H28.5C29.6046 30 30.5 29.1046 30.5 28V2C30.5 0.895431 29.6046 0 28.5 0H2.5ZM21.3511 8.17881C22.1283 8.94258 23.163 9.47209 24.3067 9.69136H24.3526C24.7301 9.75925 25.1146 9.79277 25.5 9.79139V13.1924C23.538 13.198 21.6235 12.6662 20.027 11.6719V18.674C20.0234 19.9314 19.5911 21.1595 18.7851 22.2022C17.979 23.245 16.8356 24.0553 15.5001 24.5302C14.1646 25.0052 12.6973 25.1233 11.2847 24.8695C9.87202 24.6158 8.57776 24.0017 7.56636 23.1052C6.5795 22.2241 5.90879 21.1112 5.63636 19.9029C5.36393 18.6945 5.50159 17.4431 6.0325 16.3019C6.56342 15.1607 7.46453 14.1793 8.62549 13.4777C9.78646 12.7762 11.1569 12.385 12.569 12.3521C12.9523 12.3443 13.3358 12.3611 13.7163 12.4021V15.9032C13.3893 15.8153 13.0488 15.7714 12.7066 15.7731C12.0879 15.7712 11.4809 15.9203 10.9543 16.2035C10.4276 16.4867 10.0024 16.8927 9.72663 17.3756C9.45087 17.8585 9.33559 18.399 9.39383 18.936C9.45207 19.4731 9.6815 19.9852 10.0562 20.4145C10.4744 20.8994 11.057 21.2574 11.7216 21.4376C12.3861 21.6179 13.0989 21.6113 13.7589 21.4187C14.4189 21.2262 14.9926 20.8575 15.3989 20.3649C15.8052 19.8723 16.0234 19.2807 16.0226 18.674V5H19.9811V5.44013C20.0944 6.45629 20.574 7.41505 21.3511 8.17881Z" fill="black"/>
<path d="M24.3067 9.69136L24.1184 10.6735L24.2117 10.6914H24.3067V9.69136ZM21.3511 8.17881L20.6502 8.89203V8.89203L21.3511 8.17881ZM24.3526 9.69136L24.5296 8.70715L24.4418 8.69136H24.3526V9.69136ZM25.5 9.79139H26.5V8.78778L25.4964 8.79139L25.5 9.79139ZM25.5 13.1924L25.5029 14.1924L26.5 14.1895V13.1924H25.5ZM20.027 11.6719L20.5556 10.8231L19.027 9.87113V11.6719H20.027ZM20.027 18.674L21.027 18.6768V18.674H20.027ZM15.5001 24.5302L15.8352 25.4724L15.5001 24.5302ZM11.2847 24.8695L11.1079 25.8538L11.2847 24.8695ZM7.56636 23.1052L6.90034 23.8512L6.90305 23.8536L7.56636 23.1052ZM5.63636 19.9029L4.66084 20.1228L5.63636 19.9029ZM6.0325 16.3019L5.12582 15.8801L6.0325 16.3019ZM8.62549 13.4777L8.10831 12.6218L8.62549 13.4777ZM12.569 12.3521L12.5486 11.3523L12.5457 11.3524L12.569 12.3521ZM13.7163 12.4021H14.7163V11.5043L13.8237 11.4079L13.7163 12.4021ZM13.7163 15.9032L13.4568 16.8689L14.7163 17.2074V15.9032H13.7163ZM12.7066 15.7731L12.7036 16.7731L12.7116 16.7731L12.7066 15.7731ZM9.72663 17.3756L8.85825 16.8797L8.85825 16.8797L9.72663 17.3756ZM10.0562 20.4145L10.8135 19.7614L10.8096 19.7569L10.0562 20.4145ZM11.7216 21.4376L11.9834 20.4725H11.9834L11.7216 21.4376ZM15.3989 20.3649L16.1704 21.0012H16.1704L15.3989 20.3649ZM16.0226 18.674H15.0226L15.0226 18.6753L16.0226 18.674ZM16.0226 5V4H15.0226V5H16.0226ZM19.9811 5H20.9811V4H19.9811V5ZM19.9811 5.44013H18.9811V5.4957L18.9872 5.55094L19.9811 5.44013ZM1.5 2C1.5 1.44772 1.94772 1 2.5 1V-1C0.843146 -1 -0.5 0.343146 -0.5 2H1.5ZM1.5 28V2H-0.5V28H1.5ZM2.5 29C1.94772 29 1.5 28.5523 1.5 28H-0.5C-0.5 29.6569 0.843145 31 2.5 31V29ZM28.5 29H2.5V31H28.5V29ZM29.5 28C29.5 28.5523 29.0523 29 28.5 29V31C30.1569 31 31.5 29.6569 31.5 28H29.5ZM29.5 2V28H31.5V2H29.5ZM28.5 1C29.0523 1 29.5 1.44772 29.5 2H31.5C31.5 0.343146 30.1569 -1 28.5 -1V1ZM2.5 1H28.5V-1H2.5V1ZM24.495 8.70924C23.5309 8.52442 22.6788 8.08149 22.0521 7.4656L20.6502 8.89203C21.5778 9.80367 22.795 10.4198 24.1184 10.6735L24.495 8.70924ZM24.3526 8.69136H24.3067V10.6914H24.3526V8.69136ZM25.4964 8.79139C25.1713 8.79256 24.8472 8.76427 24.5296 8.70715L24.1756 10.6756C24.6129 10.7542 25.0579 10.793 25.5036 10.7914L25.4964 8.79139ZM26.5 13.1924V9.79139H24.5V13.1924H26.5ZM19.4983 12.5208C21.2614 13.6187 23.3615 14.1985 25.5029 14.1924L25.4971 12.1924C23.7144 12.1975 21.9856 11.7136 20.5556 10.8231L19.4983 12.5208ZM21.027 18.674V11.6719H19.027V18.674H21.027ZM19.5763 22.8138C20.5101 21.6057 21.0227 20.1657 21.027 18.6768L19.027 18.6711C19.024 19.697 18.6721 20.7133 17.9939 21.5907L19.5763 22.8138ZM15.8352 25.4724C17.3371 24.9383 18.6441 24.0197 19.5763 22.8138L17.9939 21.5907C17.314 22.4702 16.3342 23.1723 15.1651 23.588L15.8352 25.4724ZM11.1079 25.8538C12.6897 26.1379 14.3335 26.0065 15.8352 25.4724L15.1651 23.588C13.9958 24.0039 12.705 24.1087 11.4615 23.8853L11.1079 25.8538ZM6.90305 23.8536C8.06051 24.8795 9.52616 25.5697 11.1079 25.8538L11.4615 23.8853C10.2179 23.6619 9.09501 23.1239 8.22966 22.3569L6.90305 23.8536ZM4.66084 20.1228C4.98231 21.5486 5.76922 22.8412 6.90034 23.8512L8.23237 22.3593C7.38978 21.607 6.83528 20.6738 6.61187 19.6829L4.66084 20.1228ZM5.12582 15.8801C4.50329 17.2182 4.33895 18.6951 4.66084 20.1228L6.61187 19.6829C6.3889 18.6939 6.4999 17.668 6.93919 16.7237L5.12582 15.8801ZM8.10831 12.6218C6.79112 13.4178 5.74713 14.5446 5.12582 15.8801L6.93919 16.7237C7.3797 15.7768 8.13793 14.9407 9.14267 14.3336L8.10831 12.6218ZM12.5457 11.3524C10.9667 11.3892 9.42484 11.8263 8.10831 12.6218L9.14267 14.3336C10.1481 13.7261 11.347 13.3809 12.5922 13.3519L12.5457 11.3524ZM13.8237 11.4079C13.4007 11.3622 12.9745 11.3437 12.5486 11.3523L12.5893 13.3519C12.9301 13.345 13.2709 13.3599 13.609 13.3964L13.8237 11.4079ZM14.7163 15.9032V12.4021H12.7163V15.9032H14.7163ZM12.7116 16.7731C12.9655 16.7718 13.2169 16.8044 13.4568 16.8689L13.9759 14.9374C13.5617 14.8261 13.1322 14.771 12.7017 14.7731L12.7116 16.7731ZM11.4279 17.0842C11.8028 16.8826 12.2452 16.7717 12.7036 16.7731L12.7097 14.7731C11.9306 14.7707 11.159 14.958 10.4807 15.3228L11.4279 17.0842ZM10.595 17.8715C10.7708 17.5636 11.0534 17.2856 11.4279 17.0842L10.4807 15.3228C9.80191 15.6877 9.23397 16.2217 8.85825 16.8797L10.595 17.8715ZM10.388 18.8282C10.3532 18.5072 10.4204 18.1772 10.595 17.8715L8.85825 16.8797C8.4813 17.5398 8.318 18.2908 8.39966 19.0438L10.388 18.8282ZM10.8096 19.7569C10.5617 19.4729 10.4229 19.1502 10.388 18.8282L8.39966 19.0438C8.48123 19.796 8.80127 20.4974 9.30279 21.072L10.8096 19.7569ZM11.9834 20.4725C11.4962 20.3404 11.0914 20.0837 10.8135 19.7614L9.29888 21.0675C9.85736 21.7151 10.6179 22.1744 11.4598 22.4028L11.9834 20.4725ZM13.4788 20.4587C12.9958 20.5996 12.4706 20.6046 11.9834 20.4725L11.4598 22.4028C12.3017 22.6311 13.2019 22.6229 14.0389 22.3787L13.4788 20.4587ZM14.6274 19.7286C14.3587 20.0545 13.9617 20.3179 13.4788 20.4587L14.0389 22.3787C14.876 22.1345 15.6266 21.6605 16.1704 21.0012L14.6274 19.7286ZM15.0226 18.6753C15.0231 19.0365 14.8941 19.4053 14.6274 19.7286L16.1704 21.0012C16.7163 20.3392 17.0237 19.5249 17.0226 18.6726L15.0226 18.6753ZM15.0226 5V18.674H17.0226V5H15.0226ZM19.9811 4H16.0226V6H19.9811V4ZM20.9811 5.44013V5H18.9811V5.44013H20.9811ZM22.0521 7.4656C21.4273 6.8516 21.061 6.10134 20.9749 5.32932L18.9872 5.55094C19.1278 6.81125 19.7207 7.97849 20.6502 8.89203L22.0521 7.4656Z" fill="black" mask="url(#path-1-inside-1_416_4445)"/>
</svg>
