<svg width="31" height="30" viewBox="0 0 31 30" fill="none" xmlns="http://www.w3.org/2000/svg">
<path d="M26.304 30H4.69604C3.58318 30 2.5159 29.5579 1.72899 28.771C0.942081 27.9841 0.5 26.9168 0.5 25.804V4.19604C0.5 3.08318 0.942081 2.0159 1.72899 1.22899C2.5159 0.442081 3.58318 0 4.69604 0H26.304C27.4168 0 28.4841 0.442081 29.271 1.22899C30.0579 2.0159 30.5 3.08318 30.5 4.19604V25.804C30.5 26.9168 30.0579 27.9841 29.271 28.771C28.4841 29.5579 27.4168 30 26.304 30ZM4.69604 1.67842C4.02832 1.67842 3.38796 1.94366 2.91581 2.41581C2.44366 2.88796 2.17842 3.52832 2.17842 4.19604V25.804C2.17842 26.4717 2.44366 27.112 2.91581 27.5842C3.38796 28.0563 4.02832 28.3216 4.69604 28.3216H26.304C26.9717 28.3216 27.612 28.0563 28.0842 27.5842C28.5563 27.112 28.8216 26.4717 28.8216 25.804V4.19604C28.8216 3.52832 28.5563 2.88796 28.0842 2.41581C27.612 1.94366 26.9717 1.67842 26.304 1.67842H4.69604Z" fill="black"/>
<path d="M15.4918 22.5C14.0088 22.4984 12.5595 22.0571 11.3271 21.2319C10.0948 20.4068 9.13477 19.2348 8.56841 17.8641C8.00205 16.4934 7.85479 14.9856 8.14523 13.5312C8.43567 12.0769 9.15078 10.7413 10.2002 9.69324C11.2495 8.64523 12.5861 7.93186 14.0408 7.64332C15.4956 7.35478 17.0032 7.50401 18.3731 8.07216C19.7431 8.6403 20.9138 9.60185 21.7374 10.8353C22.5609 12.0687 23.0003 13.5185 23 15.0016C22.9974 16.9912 22.2052 18.8984 20.7974 20.3044C19.3897 21.7103 17.4814 22.5 15.4918 22.5ZM15.4918 9.12568C14.332 9.12729 13.1986 9.4726 12.2349 10.118C11.2712 10.7634 10.5204 11.6799 10.0773 12.7517C9.63421 13.8236 9.51869 15.0027 9.74536 16.1402C9.97203 17.2777 10.5307 18.3225 11.3509 19.1426C12.171 19.9628 13.2158 20.5214 14.3533 20.7481C15.4907 20.9748 16.6699 20.8593 17.7417 20.4162C18.8136 19.9731 19.7301 19.2222 20.3755 18.2585C21.0209 17.2948 21.3662 16.1615 21.3678 15.0016C21.3678 13.4432 20.7487 11.9487 19.6468 10.8467C18.5448 9.74475 17.0502 9.12568 15.4918 9.12568Z" fill="black"/>
<path d="M22.8047 8.98438C23.7324 8.98438 24.4844 8.23235 24.4844 7.30469C24.4844 6.37702 23.7324 5.625 22.8047 5.625C21.877 5.625 21.125 6.37702 21.125 7.30469C21.125 8.23235 21.877 8.98438 22.8047 8.98438Z" fill="black"/>
</svg>
