<svg width="31" height="32" viewBox="0 0 31 32" fill="none" xmlns="http://www.w3.org/2000/svg">
<path d="M26.7351 20.1329L21.017 17.5742C20.7954 17.4783 20.5533 17.4391 20.3127 17.4602C20.0721 17.4814 19.8405 17.5622 19.639 17.6953C19.6229 17.7055 19.6075 17.7168 19.593 17.7292L16.5899 20.2891C16.523 20.3299 16.4472 20.3535 16.369 20.358C16.2909 20.3624 16.2128 20.3475 16.1418 20.3145C14.1752 19.3652 12.1397 17.3453 11.1903 15.4018C11.1567 15.3313 11.1411 15.2536 11.1449 15.1756C11.1487 15.0976 11.1718 15.0218 11.2121 14.9549L13.7793 11.9022C13.7914 11.8876 13.8023 11.8719 13.8132 11.8561C13.9459 11.6549 14.0264 11.4238 14.0476 11.1836C14.0687 10.9435 14.0298 10.7019 13.9343 10.4805L11.3707 4.77216C11.247 4.48304 11.0327 4.24188 10.7602 4.08488C10.4877 3.92789 10.1717 3.86354 9.85947 3.90149C8.33559 4.10241 6.93695 4.85119 5.9248 6.00796C4.91265 7.16474 4.3562 8.6504 4.35939 10.1875C4.35939 19.5359 11.9641 27.1406 21.3125 27.1406C22.8496 27.1438 24.3352 26.5873 25.492 25.5752C26.6488 24.563 27.3976 23.1644 27.5985 21.6405C27.6362 21.3297 27.5725 21.0151 27.4169 20.7435C27.2613 20.4718 27.0222 20.2577 26.7351 20.1329ZM26.6406 21.5194C26.4696 22.81 25.8345 23.9941 24.8538 24.8503C23.8732 25.7066 22.6143 26.1764 21.3125 26.1718C12.4993 26.1718 5.32814 19.0007 5.32814 10.1875C5.32363 8.88565 5.79342 7.62675 6.64967 6.64614C7.50592 5.66553 8.69001 5.03034 9.98056 4.85934C9.99992 4.85814 10.0193 4.85814 10.0387 4.85934C10.1342 4.86016 10.2274 4.88922 10.3065 4.94287C10.3856 4.99653 10.447 5.07237 10.4831 5.16087L13.0394 10.8692C13.0692 10.939 13.0822 11.0148 13.0774 11.0905C13.0726 11.1662 13.05 11.2398 13.0115 11.3052L10.4456 14.3567C10.4335 14.3725 10.4213 14.387 10.4104 14.404C10.2737 14.613 10.1932 14.8538 10.1767 15.103C10.1601 15.3522 10.2081 15.6015 10.316 15.8268C11.3683 17.9811 13.5383 20.1353 15.7168 21.1876C15.9436 21.2948 16.1943 21.3414 16.4445 21.323C16.6947 21.3045 16.9358 21.2216 17.1445 21.0823L17.1893 21.0484L20.196 18.4909C20.2603 18.4516 20.3331 18.4281 20.4082 18.4224C20.4834 18.4167 20.5588 18.429 20.6283 18.4582L26.3452 21.0205C26.4416 21.0607 26.5225 21.131 26.5758 21.2209C26.6291 21.3108 26.6518 21.4155 26.6406 21.5194Z" fill="#8E99A9"/>
</svg>
