<svg width="13" height="9" viewBox="0 0 13 9" fill="none" xmlns="http://www.w3.org/2000/svg">
<path d="M1.40423 1.3125H11.5957L6.49998 7.13606L1.40423 1.3125ZM0.604169 2.01269L5.69992 7.83519C5.79965 7.94931 5.92264 8.04078 6.06063 8.10345C6.19862 8.16612 6.34842 8.19854 6.49998 8.19854C6.65154 8.19854 6.80134 8.16612 6.93934 8.10345C7.07733 8.04078 7.20032 7.94931 7.30004 7.83519L12.3958 2.01269C12.9972 1.32525 12.5084 0.25 11.5957 0.25H1.40423C1.19997 0.249825 0.999991 0.308531 0.828238 0.419087C0.656484 0.529644 0.520239 0.687364 0.435817 0.873361C0.351395 1.05936 0.322376 1.26575 0.352234 1.46781C0.382092 1.66988 0.469562 1.85906 0.604169 2.01269Z" fill="#0559B9"/>
</svg>
