<svg width="17" height="17" viewBox="0 0 17 17" fill="none" xmlns="http://www.w3.org/2000/svg">
<path d="M5.5874 13.8723L5.5874 3.68076L11.411 8.77651L5.5874 13.8723ZM6.28759 14.6723L12.1101 9.57657C12.2242 9.47684 12.3157 9.35385 12.3783 9.21586C12.441 9.07787 12.4734 8.92807 12.4734 8.77651C12.4734 8.62495 12.441 8.47515 12.3783 8.33715C12.3157 8.19916 12.2242 8.07617 12.1101 7.97645L6.28759 2.8807C5.60015 2.27932 4.5249 2.76807 4.5249 3.68076L4.5249 13.8723C4.52473 14.0765 4.58343 14.2765 4.69399 14.4483C4.80455 14.62 4.96227 14.7563 5.14826 14.8407C5.33426 14.9251 5.54065 14.9541 5.74272 14.9243C5.94478 14.8944 6.13396 14.8069 6.28759 14.6723Z" fill="#015DB8" stroke-width="0.5"/>
</svg>
